<svg width="170" height="48" viewBox="0 0 170 48" fill="none" xmlns="http://www.w3.org/2000/svg">
<g clip-path="url(#clip0_35_637)">
<path d="M48.0039 24C48.0039 45.4377 45.6813 48 24.0899 48C2.49853 48 0.00390625 45.2669 0.00390625 24C0.00390625 2.7331 3.27272 0 24.0899 0C44.9071 0 48.0039 2.56228 48.0039 24Z" fill="url(#paint0_linear_35_637)"/>
<path d="M7.54297 46.2464L32.6933 19.1992L47.649 34.155C46.4604 46.3048 41.6419 47.998 24.0899 47.998C16.4041 47.998 11.138 47.6517 7.54297 46.2464Z" fill="#0A191F" fill-opacity="0.05"/>
<g clip-path="url(#clip1_35_637)">
<path d="M1.16406 38.7194L13.1424 21.4277L30.1764 33.2264L19.9487 47.9908C8.01602 47.7036 3.10522 45.9079 1.16406 38.7194Z" fill="#0A191F"/>
<path fill-rule="evenodd" clip-rule="evenodd" d="M32.5923 33.9189C34.4029 32.2092 35.7547 29.9375 35.329 27.9844C35.2074 27.143 34.7317 26.4494 33.7482 25.6412C33.8856 24.6267 35.0302 22.6364 33.7095 20.4014C33.5725 20.1679 33.423 19.9612 33.2645 19.778C32.7045 19.0116 31.8448 18.4287 30.8831 18.2193C29.8907 18.0039 29.2573 18.1704 28.5731 18.2372C28.3919 17.5714 28.331 16.9207 27.7783 16.0663C27.2749 15.2872 26.4894 14.7087 25.6336 14.4369C25.352 14.3147 25.0388 14.2195 24.6931 14.1598C22.1166 13.7045 20.6434 15.4906 19.7352 15.9799C18.0735 15.0185 17.0546 15.0404 15.674 15.8709C14.3428 16.6707 13.2077 18.1654 12.5472 19.7355C7.91399 30.3182 23.1251 42.8588 32.5938 33.9208" fill="#0A191F"/>
<path fill-rule="evenodd" clip-rule="evenodd" d="M25.6088 27.0189C27.7553 29.0477 26.8848 31.2706 25.5187 32.0311C23.9196 32.9217 21.8678 32.0184 19.9407 30.6759C17.9857 29.3137 16.4191 27.8516 16.5416 25.9646C16.6129 24.8683 17.5887 23.9159 18.4858 23.6236C19.4615 23.3048 20.0681 23.4207 21.2694 24.0092C23.7081 22.0492 26.6253 23.7614 25.607 27.0205" fill="white"/>
<path fill-rule="evenodd" clip-rule="evenodd" d="M25.4846 17.057C27.2298 19.4485 23.8364 22.9267 22.2266 20.6609C21.6463 19.8459 21.7858 18.3855 22.538 17.4078C23.261 16.4694 24.6753 15.9471 25.4864 17.0571" fill="white"/>
<path fill-rule="evenodd" clip-rule="evenodd" d="M31.6484 21.2821C33.2294 23.2435 29.6343 26.62 27.7709 24.5468C27.0569 23.7538 27.5244 22.2302 28.5556 21.3848C29.3188 20.7586 30.8483 20.291 31.6484 21.2821Z" fill="white"/>
<path fill-rule="evenodd" clip-rule="evenodd" d="M33.22 28.7701C34.4378 30.8214 30.3442 32.7058 29.1477 30.7535C27.9819 28.8506 31.9488 26.6294 33.22 28.7701Z" fill="white"/>
<path fill-rule="evenodd" clip-rule="evenodd" d="M18.3103 18.4563C19.9238 20.8248 17.2091 23.6699 15.7003 21.4002C14.2268 19.1873 16.7389 16.1468 18.3103 18.4563Z" fill="white"/>
</g>
</g>
<path d="M71.852 11.5977H63.2956C62.8335 11.5977 62.4583 11.9746 62.4583 12.435V35.5715C62.4583 36.0337 62.8352 36.4089 63.2956 36.4089H67.2916C67.7537 36.4089 68.1289 36.032 68.1289 35.5715V29.4488C68.1289 28.9867 68.5058 28.6115 68.9663 28.6115H71.8503C76.7416 28.6115 80.5345 24.8185 80.5345 20.1046C80.5345 15.3906 76.7416 11.5977 71.8503 11.5977H71.852ZM71.852 23.2955H68.968C68.5059 23.2955 68.1306 22.9186 68.1306 22.4581V17.7527C68.1306 17.2922 68.5076 16.9153 68.968 16.9153H71.852C73.5882 16.9153 74.8656 18.2985 74.8656 20.1063C74.8656 21.9141 73.5899 23.2972 71.852 23.2972" fill="#242B2E"/>
<path d="M95.0886 19.4118V20.2407C93.9187 18.8933 92.1825 18.0781 89.8068 18.0781C85.1628 18.0781 81.3357 22.1542 81.3357 27.4361C81.3357 32.7179 85.1645 36.794 89.8068 36.794C92.1808 36.794 93.9187 35.9788 95.0886 34.6314V35.4603C95.0886 35.9225 95.4655 36.2977 95.926 36.2977H99.5672C100.029 36.2977 100.405 35.9208 100.405 35.4603V19.4135C100.405 18.9513 100.028 18.5761 99.5672 18.5761H95.926C95.4638 18.5761 95.0886 18.953 95.0886 19.4135V19.4118ZM90.871 31.7594C88.4253 31.7594 86.6534 30.0932 86.6534 27.4361C86.6534 24.7789 88.4253 23.111 90.871 23.111C93.3166 23.111 95.0886 24.7772 95.0886 27.4361C95.0886 30.0949 93.3166 31.7594 90.871 31.7594Z" fill="#242B2E"/>
<path d="M123.633 19.195L122.025 25.1829C121.926 25.5513 121.605 25.7986 121.225 25.8037C120.843 25.8071 120.519 25.5667 120.412 25.2L118.658 19.178C118.553 18.8147 118.232 18.5742 117.853 18.5742H114.147C113.769 18.5742 113.45 18.8147 113.342 19.178L111.591 25.2C111.485 25.5649 111.159 25.8071 110.777 25.8037C110.395 25.8003 110.075 25.5513 109.977 25.1829L108.369 19.195C108.269 18.8249 107.945 18.5742 107.561 18.5742H103.679C103.403 18.5742 103.166 18.6953 103.002 18.917C102.838 19.1404 102.797 19.4031 102.881 19.6657L108.016 35.7125C108.129 36.0655 108.444 36.2958 108.814 36.2958H112.542C112.918 36.2958 113.237 36.0587 113.346 35.6989L115.2 29.5114C115.307 29.1516 115.626 28.9145 116.001 28.9145C116.376 28.9145 116.695 29.1516 116.804 29.5114L118.658 35.6989C118.766 36.0587 119.085 36.2958 119.462 36.2958H123.188C123.558 36.2958 123.872 36.0655 123.986 35.7125L129.121 19.6657C129.205 19.4031 129.162 19.1404 129 18.917C128.837 18.6936 128.6 18.5742 128.323 18.5742H124.442C124.056 18.5742 123.732 18.8232 123.633 19.195Z" fill="#242B2E"/>
<path d="M148.445 34.9782L143.371 27.776C143.163 27.4809 143.163 27.1057 143.371 26.8107L148.237 19.8933C148.421 19.6306 148.443 19.31 148.295 19.0252C148.146 18.7404 147.872 18.5732 147.551 18.5732H143.502C143.221 18.5732 142.979 18.6994 142.817 18.9297L140.67 21.991C140.508 22.2212 140.265 22.3475 139.984 22.3475C139.703 22.3475 139.461 22.2212 139.298 21.991L137.151 18.9297C136.989 18.6994 136.747 18.5732 136.466 18.5732H132.417C132.096 18.5732 131.822 18.7404 131.673 19.0252C131.525 19.31 131.547 19.6306 131.731 19.8933L136.595 26.8107C136.802 27.1057 136.802 27.4809 136.595 27.776L131.522 34.9782C131.337 35.2408 131.315 35.5615 131.462 35.8463C131.61 36.1311 131.885 36.2982 132.205 36.2982H136.253C136.534 36.2982 136.776 36.172 136.936 35.9435L139.297 32.5922C139.459 32.362 139.701 32.2375 139.982 32.2375C140.264 32.2375 140.506 32.362 140.668 32.5922L143.028 35.9435C143.19 36.1737 143.433 36.2982 143.714 36.2982H147.761C148.082 36.2982 148.356 36.1311 148.505 35.8463C148.651 35.5615 148.631 35.2408 148.445 34.9782Z" fill="#242B2E"/>
<path d="M163.674 19.1667L161.259 27.029C161.152 27.3803 160.845 27.6105 160.478 27.6208C160.112 27.631 159.794 27.4144 159.67 27.0699L156.789 19.1275C156.667 18.7898 156.361 18.5749 156.001 18.5749H151.997C151.709 18.5749 151.46 18.708 151.299 18.9484C151.139 19.1889 151.112 19.4686 151.224 19.7347L157.664 35.1726C157.753 35.3841 157.753 35.599 157.666 35.8122C156.977 37.5023 155.979 38.2459 154.132 38.3943C153.696 38.4301 153.361 38.7916 153.361 39.2299V42.5658C153.361 42.7978 153.445 42.9973 153.61 43.161C153.774 43.3248 153.975 43.4049 154.207 43.4032C158.686 43.364 161.592 41.0735 163.465 35.7644L169.132 19.6886C169.226 19.4243 169.188 19.1548 169.026 18.9263C168.864 18.6977 168.624 18.5732 168.342 18.5732H164.472C164.099 18.5732 163.782 18.8069 163.673 19.165" fill="#242B2E"/>
<defs>
<linearGradient id="paint0_linear_35_637" x1="24.0039" y1="0" x2="24.0039" y2="48" gradientUnits="userSpaceOnUse">
<stop stop-color="#00EAFF"/>
<stop offset="1" stop-color="#00C0FF"/>
</linearGradient>
<clipPath id="clip0_35_637">
<rect width="48" height="48" fill="white"/>
</clipPath>
<clipPath id="clip1_35_637">
<rect width="35.6571" height="34.1143" fill="white" transform="translate(0 13.8848)"/>
</clipPath>
</defs>
</svg>
